<svg xmlns="http://www.w3.org/2000/svg" class="inline-svg--fa" viewBox="0 0 1536 1792"><path fill="currentColor" d="M1149 1122q0-26-19-45L949 896l181-181q19-19 19-45 0-27-19-46l-90-90q-19-19-46-19-26 0-45 19L768 715 587 534q-19-19-45-19-27 0-46 19l-90 90q-19 19-19 46 0 26 19 45l181 181-181 181q-19 19-19 45 0 27 19 46l90 90q19 19 46 19 26 0 45-19l181-181 181 181q19 19 45 19 27 0 46-19l90-90q19-19 19-46zm387-226q0 209-103 385.5T1153.5 1561 768 1664t-385.5-103T103 1281.5 0 896t103-385.5T382.5 231 768 128t385.5 103T1433 510.5 1536 896z"/></svg>